# Blender v2.80 (sub 75) OBJ File: 'TUBAA.blend'
# www.blender.org
mtllib tuba.mtl
o Plane
v 1.707235 0.031661 1.000000
v 1.129900 0.000000 0.422665
v 1.689010 0.013436 0.981774
v 1.129900 0.000000 -0.422665
v 0.520806 0.000000 0.422665
v 0.520806 0.000000 -0.422665
v -0.056529 0.013436 0.981774
v -0.056529 0.031661 1.000000
v -1.287613 1.268596 -1.000000
v -1.287613 1.268596 1.000000
v -0.056529 1.268596 1.000000
v 1.707235 1.268596 1.000000
v 1.707235 1.268596 -1.000000
v -0.056529 1.268596 -1.000000
v 1.707235 1.268596 -2.650010
v -0.056529 1.268596 -2.650010
v -1.287613 0.031661 1.000000
v -1.269387 0.013436 0.981774
v -1.269387 0.013436 -0.981774
v -1.287613 0.031661 -1.000000
v 0.540872 1.268596 0.402599
v 1.109834 1.268596 0.402599
v 1.109834 1.268596 -0.402599
v 0.540872 1.268596 -0.402599
v -1.269387 0.000000 0.981774
v -1.287613 0.018226 1.000000
v -1.287613 0.018226 -1.000000
v -1.269387 0.000000 -0.981774
v 1.707235 0.018226 -2.650010
v 1.689010 0.000000 -2.631784
v -0.038303 0.000000 -2.631784
v -0.056529 0.018226 -2.650010
v -0.056529 0.018226 1.000000
v -0.056529 0.000000 0.981774
v 1.689010 0.000000 0.981774
v 1.707235 0.018226 1.000000
v 1.689010 0.000000 -1.000000
v 1.707235 0.018226 -1.000000
v -0.056529 0.018226 -1.000000
v -0.038303 0.000000 -0.981774
v 1.689010 0.013436 -1.000000
v 1.707235 0.031661 -1.000000
v -0.056529 0.031661 -1.000000
v -0.038303 0.013436 -0.981774
v 1.707235 0.031661 -2.650010
v 1.689010 0.013436 -2.631784
v -0.038303 0.013436 -2.631784
v -0.056529 0.031661 -2.650010
v 0.520806 1.268596 0.422665
v 1.129900 1.268596 0.422665
v 1.129900 1.268596 -0.422665
v 0.520806 1.268596 -0.422665
v 0.540872 0.000000 0.402599
v 1.109834 0.000000 0.402599
v 1.109834 0.000000 -0.402599
v 0.540872 0.000000 -0.402599
vt 0.000000 0.000000
vt 0.000000 0.000000
vt 0.411067 0.000000
vt 0.411067 0.000000
vt 1.000000 1.000000
vt 1.000000 1.000000
vt 1.000000 1.000000
vt 1.000000 1.000000
vt 0.411067 1.000000
vt 0.411067 1.000000
vt 0.411067 1.000000
vt 0.411067 1.000000
vt 0.000000 1.000000
vt 0.000000 1.000000
vt 1.000000 0.000000
vt 1.000000 0.000000
vt 0.000000 1.000000
vt 0.006086 0.990887
vt 0.006086 0.009113
vt 0.000000 0.000000
vt 1.000000 1.000000
vt 1.000000 1.000000
vt 0.993914 0.009113
vt 0.993914 0.009113
vt 0.993914 1.000000
vt 0.993914 1.000000
vt 0.411067 0.000000
vt 0.000000 0.000000
vt 0.993914 1.000000
vt 0.993914 1.000000
vt 1.000000 0.000000
vt 0.006086 0.009113
vt 0.006086 0.009113
vt 0.411067 0.009113
vt 0.411067 0.009113
vt 0.411067 1.000000
vt 0.411067 1.000000
vt 0.000000 1.000000
vt 0.411067 0.000000
vt 0.411067 0.009113
vt 0.993914 0.009113
vt 1.000000 0.000000
vt 0.993914 1.000000
vt 1.000000 1.000000
vt 0.411067 1.000000
vt 0.417153 0.990887
vt 1.000000 1.000000
vt 0.993914 1.000000
vt 0.417153 1.000000
vt 0.411067 1.000000
vt 0.417153 1.000000
vt 0.006086 0.990887
vt 0.006086 0.990887
vt 0.417153 1.000000
vt 0.417153 1.000000
vt 0.417153 0.990887
vt 0.417153 0.990887
vt 0.417153 1.000000
vt 0.417153 1.000000
vt -4.040147 -0.568696
vt -2.249735 -3.301972
vt 0.357229 1.628256
vt -1.460087 4.402605
vt 2.931025 -2.218243
vt 5.075154 1.913100
vt 2.525307 5.805742
vt 0.447925 -1.047294
vt -0.662819 -3.187494
vt 0.327017 -7.235687
vt 0.236322 -4.560140
vt 1.347066 -2.419939
vt 0.603843 0.288668
vt 0.603843 0.288668
vt 0.603843 0.711332
vt 0.603843 0.711332
vt 0.807224 0.711332
vt 0.807224 0.711332
vt 0.807224 0.288668
vt 0.807224 0.288668
vt 0.610543 0.298701
vt 0.610543 0.298701
vt 0.610543 0.701299
vt 0.610543 0.701299
vt 0.800524 0.298701
vt 0.800524 0.701299
vt 0.800524 0.298701
vt 0.800524 0.701299
vn 0.0000 0.0000 -1.0000
vn -1.0000 0.0000 0.0000
vn 1.0000 0.0000 0.0000
vn 0.0000 0.0000 1.0000
vn 0.7071 0.7071 0.0000
vn 0.0000 0.7071 -0.7071
vn -0.7071 0.7071 0.0000
vn 0.0000 0.7071 0.7071
vn 0.0000 1.0000 0.0000
g Plane_Plane_seinav채rv
usemtl seinav채rv
s off
f 26/1/1 10/2/1 11/3/1 33/4/1
f 38/5/2 13/6/2 15/7/2 29/8/2
f 32/9/3 16/10/3 14/11/3 39/12/3
f 29/8/4 15/7/4 16/10/4 32/9/4
f 39/12/4 14/11/4 9/13/4 27/14/4
f 33/4/1 11/3/1 12/15/1 36/16/1
f 36/16/2 12/15/2 13/6/2 38/5/2
f 19/17/5 20/18/5 17/19/5 18/20/5
f 29/8/3 45/21/3 42/22/3 38/5/3
f 35/23/2 3/24/2 41/25/2 37/26/2
f 33/4/4 8/27/4 17/28/4 26/1/4
f 37/26/2 41/25/2 46/29/2 30/30/2
f 36/16/4 1/31/4 8/27/4 33/4/4
f 25/32/1 18/33/1 7/34/1 34/35/1
f 39/12/2 43/36/2 48/37/2 32/9/2
f 27/14/1 20/38/1 43/36/1 39/12/1
f 27/14/3 9/13/3 10/2/3 26/1/3
f 7/39/6 8/40/6 1/41/6 3/42/6
f 3/42/7 1/41/7 42/43/7 41/44/7
f 44/45/8 43/46/8 20/18/8 19/17/8
f 18/20/6 17/19/6 8/40/6 7/39/6
f 46/47/8 45/48/8 48/49/8 47/50/8
f 47/50/5 48/49/5 43/51/5 44/45/5
f 41/44/7 42/43/7 45/48/7 46/47/7
f 28/52/3 19/53/3 18/33/3 25/32/3
f 30/30/4 46/29/4 47/54/4 31/55/4
f 38/5/3 42/22/3 1/31/3 36/16/3
f 26/1/2 17/28/2 20/38/2 27/14/2
f 32/9/1 48/37/1 45/21/1 29/8/1
f 40/56/4 44/57/4 19/53/4 28/52/4
f 34/35/1 7/34/1 3/24/1 35/23/1
f 31/55/3 47/54/3 44/58/3 40/59/3
g Plane_Plane_p천rand
usemtl p천rand
f 25/60/9 34/61/9 40/62/9 28/63/9
f 40/62/9 37/64/9 30/65/9 31/66/9
f 6/67/9 40/62/9 34/61/9 5/68/9
f 5/68/9 34/61/9 35/69/9 2/70/9
f 4/71/9 37/64/9 40/62/9 6/67/9
f 2/70/9 35/69/9 37/64/9 4/71/9
g Plane_Plane_klaas
usemtl klaas
f 5/72/2 49/73/2 52/74/2 6/75/2
f 4/76/3 51/77/3 50/78/3 2/79/3
f 6/75/1 52/74/1 51/77/1 4/76/1
f 2/79/4 50/78/4 49/73/4 5/72/4
f 21/80/3 53/81/3 56/82/3 24/83/3
f 21/80/9 49/73/9 50/78/9 22/84/9
f 22/84/9 50/78/9 51/77/9 23/85/9
f 23/85/9 51/77/9 52/74/9 24/83/9
f 24/83/9 52/74/9 49/73/9 21/80/9
f 53/81/9 54/86/9 55/87/9 56/82/9
f 23/85/2 55/87/2 54/86/2 22/84/2
f 24/83/4 56/82/4 55/87/4 23/85/4
f 22/84/1 54/86/1 53/81/1 21/80/1
